# xmcd
#
# Track frame offsets: 
#        150
#        15498
#        27758
#        39278
#        54488
#        66930
#        81478
#        94030
#        108190
#        123545
#        136343
#        149690
#        165263
#        175403
#        190483
#        202808
#        218193
#        231626
#
# Disc length: 3231 seconds
#
# Revision: 1
# Processed by: cddbd v1.5.2PL0 Copyright (c) Steve Scherf et al.
# Submitted via: ExactAudioCopy v1.0b6
#
DISCID=fe0c9d12
DTITLE=Lena Horne - Lena Horne
DYEAR=1999
DGENRE=Jazz
TTITLE0=Stormy Weather (1941)
TTITLE1=What is this Thing called Love? (1941)
TTITLE2=Ill Wind (1941)
TTITLE3=The Man I Love (1941)
TTITLE4=Where or When (1941)
TTITLE5=I Gotta Right to Sing the Blues (1941)
TTITLE6=Moanin' Low (1941)
TTITLE7=I didn't Know about You (1944)
TTITLE8=One for my Baby (and One more for the Road) (1944)
TTITLE9=As long as I live (1944)
TTITLE10=I aint't got nothing but the Blues (1944)
TTITLE11=How long has this been going on? (1945)
TTITLE12=It's Love (1955)
TTITLE13=Let me Love You (1955)
TTITLE14=It's all right with me (1955)
TTITLE15=People will say We're in Love (1958)
TTITLE16=Just in Time (1958)
TTITLE17=Get out of Town (1958)
EXTD=YEAR: 1999
EXTT0=
EXTT1=
EXTT2=
EXTT3=
EXTT4=
EXTT5=
EXTT6=
EXTT7=
EXTT8=
EXTT9=
EXTT10=
EXTT11=
EXTT12=
EXTT13=
EXTT14=
EXTT15=
EXTT16=
EXTT17=
PLAYORDER=
